<svg width="145" height="40" viewBox="0 0 145 40" fill="none" xmlns="http://www.w3.org/2000/svg">
<path d="M64.636 29L60.408 22.42L56.572 29H52.148L58.308 19.144L52.064 9.456H56.572L60.8 16.008L64.608 9.456H69.032L62.9 19.284L69.144 29H64.636ZM70.2793 21.188C70.2793 19.62 70.5873 18.2293 71.2033 17.016C71.838 15.8027 72.6873 14.8693 73.7513 14.216C74.834 13.5627 76.038 13.236 77.3633 13.236C78.5206 13.236 79.5286 13.4693 80.3873 13.936C81.2646 14.4027 81.9646 14.9907 82.4873 15.7V13.488H86.4353V29H82.4873V26.732C81.9833 27.46 81.2833 28.0667 80.3873 28.552C79.51 29.0187 78.4926 29.252 77.3353 29.252C76.0286 29.252 74.834 28.916 73.7513 28.244C72.6873 27.572 71.838 26.6293 71.2033 25.416C70.5873 24.184 70.2793 22.7747 70.2793 21.188ZM82.4873 21.244C82.4873 20.292 82.3006 19.48 81.9273 18.808C81.554 18.1173 81.05 17.5947 80.4153 17.24C79.7806 16.8667 79.0993 16.68 78.3713 16.68C77.6433 16.68 76.9713 16.8573 76.3553 17.212C75.7393 17.5667 75.2353 18.0893 74.8433 18.78C74.47 19.452 74.2833 20.2547 74.2833 21.188C74.2833 22.1213 74.47 22.9427 74.8433 23.652C75.2353 24.3427 75.7393 24.8747 76.3553 25.248C76.99 25.6213 77.662 25.808 78.3713 25.808C79.0993 25.808 79.7806 25.6307 80.4153 25.276C81.05 24.9027 81.554 24.38 81.9273 23.708C82.3006 23.0173 82.4873 22.196 82.4873 21.244ZM93.3439 15.728C93.8479 15.0187 94.5385 14.4307 95.4159 13.964C96.3119 13.4787 97.3292 13.236 98.4679 13.236C99.7932 13.236 100.988 13.5627 102.052 14.216C103.135 14.8693 103.984 15.8027 104.6 17.016C105.235 18.2107 105.552 19.6013 105.552 21.188C105.552 22.7747 105.235 24.184 104.6 25.416C103.984 26.6293 103.135 27.572 102.052 28.244C100.988 28.916 99.7932 29.252 98.4679 29.252C97.3292 29.252 96.3212 29.0187 95.4439 28.552C94.5852 28.0853 93.8852 27.4973 93.3439 26.788V36.392H89.4239V13.488H93.3439V15.728ZM101.548 21.188C101.548 20.2547 101.352 19.452 100.96 18.78C100.587 18.0893 100.083 17.5667 99.4479 17.212C98.8319 16.8573 98.1599 16.68 97.4319 16.68C96.7225 16.68 96.0505 16.8667 95.4159 17.24C94.7999 17.5947 94.2959 18.1173 93.9039 18.808C93.5305 19.4987 93.3439 20.3107 93.3439 21.244C93.3439 22.1773 93.5305 22.9893 93.9039 23.68C94.2959 24.3707 94.7999 24.9027 95.4159 25.276C96.0505 25.6307 96.7225 25.808 97.4319 25.808C98.1599 25.808 98.8319 25.6213 99.4479 25.248C100.083 24.8747 100.587 24.3427 100.96 23.652C101.352 22.9613 101.548 22.14 101.548 21.188ZM106.552 21.188C106.552 19.62 106.86 18.2293 107.476 17.016C108.111 15.8027 108.96 14.8693 110.024 14.216C111.107 13.5627 112.311 13.236 113.636 13.236C114.794 13.236 115.802 13.4693 116.66 13.936C117.538 14.4027 118.238 14.9907 118.76 15.7V13.488H122.708V29H118.76V26.732C118.256 27.46 117.556 28.0667 116.66 28.552C115.783 29.0187 114.766 29.252 113.608 29.252C112.302 29.252 111.107 28.916 110.024 28.244C108.96 27.572 108.111 26.6293 107.476 25.416C106.86 24.184 106.552 22.7747 106.552 21.188ZM118.76 21.244C118.76 20.292 118.574 19.48 118.2 18.808C117.827 18.1173 117.323 17.5947 116.688 17.24C116.054 16.8667 115.372 16.68 114.644 16.68C113.916 16.68 113.244 16.8573 112.628 17.212C112.012 17.5667 111.508 18.0893 111.116 18.78C110.743 19.452 110.556 20.2547 110.556 21.188C110.556 22.1213 110.743 22.9427 111.116 23.652C111.508 24.3427 112.012 24.8747 112.628 25.248C113.263 25.6213 113.935 25.808 114.644 25.808C115.372 25.808 116.054 25.6307 116.688 25.276C117.323 24.9027 117.827 24.38 118.2 23.708C118.574 23.0173 118.76 22.196 118.76 21.244ZM134.265 29L131.073 24.184L128.245 29H124.045L129.113 21.216L123.989 13.488H128.413L131.577 18.276L134.433 13.488H138.633L133.537 21.216L138.689 29H134.265Z" fill="white"/>
<path d="M141.714 29.196C141.005 29.196 140.417 28.9813 139.95 28.552C139.502 28.104 139.278 27.5533 139.278 26.9C139.278 26.2467 139.502 25.7053 139.95 25.276C140.417 24.828 141.005 24.604 141.714 24.604C142.405 24.604 142.974 24.828 143.422 25.276C143.87 25.7053 144.094 26.2467 144.094 26.9C144.094 27.5533 143.87 28.104 143.422 28.552C142.974 28.9813 142.405 29.196 141.714 29.196Z" fill="#FAB8C4"/>
<rect width="40" height="40" rx="11.4286" fill="white"/>
<circle cx="12.8569" cy="12.8569" r="5.71429" fill="#5956E9"/>
<circle cx="12.8569" cy="27.143" r="5.71429" fill="#FFDEE4"/>
<circle cx="27.143" cy="12.8569" r="5.71429" fill="#FAB8C4"/>
<circle cx="27.143" cy="27.143" r="5.71429" fill="#5956E9"/>
</svg>
